<svg width="37" height="28" viewBox="0 0 37 28" fill="none" xmlns="http://www.w3.org/2000/svg">
<path d="M19.6875 27.5625V19.6875H24.9375L18.375 11.8125L11.8125 19.6875H17.0625V27.5625H10.5V27.4969C10.2795 27.51 10.0695 27.5625 9.84375 27.5625C7.23303 27.5625 4.72923 26.5254 2.88317 24.6793C1.03711 22.8333 0 20.3295 0 17.7188C0 12.6683 3.81938 8.55225 8.72025 7.98788C9.14993 5.74164 10.3489 3.71534 12.111 2.2575C13.873 0.799652 16.088 0.00138604 18.375 0C20.6623 0.00128012 22.8776 0.799451 24.6401 2.25726C26.4026 3.71508 27.6021 5.74143 28.0324 7.98788C32.9333 8.55225 36.7474 12.6683 36.7474 17.7188C36.7474 20.3295 35.7103 22.8333 33.8642 24.6793C32.0181 26.5254 29.5143 27.5625 26.9036 27.5625C26.6831 27.5625 26.4705 27.51 26.2474 27.4969V27.5625H19.6875Z" fill="#1E4759"/>
</svg>
